<svg xmlns="http://www.w3.org/2000/svg" width="16" height="16" viewBox="0 0 16 16" fill="none">
<path opacity="0.3" d="M8.03797 1.16666C9.49844 1.16666 10.6456 1.16665 11.5412 1.28706C12.4589 1.41045 13.1871 1.66848 13.7592 2.2406C14.3314 2.81274 14.5894 3.54091 14.7128 4.45868C14.8332 5.35429 14.8332 6.5014 14.8332 7.96186V8.03813C14.8332 9.4986 14.8332 10.6457 14.7128 11.5413C14.5894 12.4591 14.3314 13.1873 13.7592 13.7594C13.1871 14.3315 12.4589 14.5895 11.5412 14.7129C10.6456 14.8333 9.49844 14.8333 8.03797 14.8333H7.9617C6.50124 14.8333 5.35413 14.8333 4.45852 14.7129C3.54075 14.5895 2.81258 14.3315 2.24044 13.7594C1.66832 13.1873 1.41029 12.4591 1.2869 11.5413C1.16649 10.6457 1.1665 9.4986 1.1665 8.03813V7.96186C1.1665 6.50141 1.16649 5.35429 1.2869 4.45868C1.41029 3.54091 1.66832 2.81274 2.24044 2.2406C2.81258 1.66848 3.54075 1.41045 4.45852 1.28706C5.35413 1.16665 6.50125 1.16666 7.9617 1.16666H8.03797Z" fill="black"/>
<path fill-rule="evenodd" clip-rule="evenodd" d="M7.99984 4.66666C8.36804 4.66666 8.6665 4.96514 8.6665 5.33333V7.33333H10.6665C11.0347 7.33333 11.3332 7.6318 11.3332 8C11.3332 8.3682 11.0347 8.66666 10.6665 8.66666H8.6665V10.6667C8.6665 11.0349 8.36804 11.3333 7.99984 11.3333C7.63164 11.3333 7.33317 11.0349 7.33317 10.6667V8.66666H5.33317C4.96498 8.66666 4.6665 8.3682 4.6665 8C4.6665 7.6318 4.96498 7.33333 5.33317 7.33333H7.33317V5.33333C7.33317 4.96514 7.63164 4.66666 7.99984 4.66666Z" fill="black"/>
</svg>