<svg xmlns="http://www.w3.org/2000/svg" width="24" height="24" viewBox="0 0 24 24" fill="none">
<path fill-rule="evenodd" clip-rule="evenodd" d="M19.8839 4.11601C20.3721 4.60417 20.3721 5.39562 19.8839 5.88378L5.88389 19.8838C5.39573 20.3719 4.60428 20.3719 4.11612 19.8838C3.62796 19.3956 3.62796 18.6042 4.11612 18.116L18.1161 4.11601C18.6043 3.62785 19.3957 3.62785 19.8839 4.11601Z" fill="white"/>
<path fill-rule="evenodd" clip-rule="evenodd" d="M4.11612 4.11601C4.60428 3.62785 5.39573 3.62785 5.88389 4.11601L19.8839 18.116C20.3721 18.6042 20.3721 19.3956 19.8839 19.8838C19.3957 20.3719 18.6043 20.3719 18.1161 19.8838L4.11612 5.88378C3.62796 5.39562 3.62796 4.60417 4.11612 4.11601Z" fill="white"/>
</svg>