<svg xmlns="http://www.w3.org/2000/svg" width="16" height="16" viewBox="0 0 16 16" fill="none">
<path d="M10.7033 5.5C11.615 5.49999 12.3499 5.49997 12.9279 5.57768C13.5279 5.65836 14.0331 5.83095 14.4345 6.23223C14.8357 6.63351 15.0083 7.13873 15.089 7.73887C15.1667 8.3168 15.1667 9.05167 15.1667 9.9634V10.7033C15.1667 11.615 15.1667 12.3499 15.089 12.9279C15.0083 13.5279 14.8357 14.0331 14.4345 14.4345C14.0331 14.8357 13.5279 15.0083 12.9279 15.089C12.3499 15.1667 11.615 15.1667 10.7033 15.1667H9.9634C9.05167 15.1667 8.3168 15.1667 7.7388 15.089C7.13873 15.0083 6.63351 14.8357 6.23223 14.4344C5.83095 14.0331 5.65836 13.5279 5.57768 12.9279C5.49997 12.3499 5.49999 11.615 5.5 10.7033V9.9634C5.49999 9.05167 5.49997 8.3168 5.57768 7.7388C5.65836 7.13873 5.83095 6.63351 6.23223 6.23223C6.63351 5.83095 7.13873 5.65836 7.73887 5.57768C8.3168 5.49997 9.05167 5.49999 9.9634 5.5H10.7033Z" fill="black"/>
<path d="M4.50016 9.90464C4.5001 9.04184 4.50005 8.25057 4.58676 7.60564C4.6823 6.89504 4.90706 6.1434 5.52529 5.52517C6.14352 4.90693 6.89516 4.68217 7.60576 4.58664C8.2507 4.49993 9.04196 4.49998 9.90476 4.50004H11.3956C11.5929 4.50004 11.6916 4.50004 11.7509 4.43617C11.8102 4.37229 11.8032 4.27617 11.789 4.08393C11.7767 3.91701 11.761 3.75932 11.7409 3.61033C11.6547 2.97063 11.4823 2.43904 11.1147 1.99113C10.9831 1.83079 10.8361 1.68376 10.6758 1.55217C10.2031 1.16429 9.6373 0.993741 8.95003 0.912494C8.2805 0.833361 7.4343 0.833367 6.36612 0.833374H6.30089C5.23272 0.833367 4.38648 0.833361 3.717 0.912494C3.02968 0.993734 2.46388 1.16429 1.99125 1.55217C1.83091 1.68376 1.68388 1.83079 1.5523 1.99113C1.16442 2.46376 0.993863 3.02956 0.912616 3.71687C0.833483 4.38635 0.83349 5.23259 0.833496 6.30076V6.36598C0.83349 7.43417 0.833483 8.28037 0.912616 8.94984C0.993856 9.63717 1.16442 10.203 1.5523 10.6756C1.68388 10.836 1.83091 10.983 1.99125 11.1146C2.43916 11.4822 2.97076 11.6546 3.61046 11.7408C3.75944 11.7608 3.91714 11.7766 4.08406 11.7889C4.2763 11.803 4.37242 11.8101 4.43629 11.7508C4.50016 11.6914 4.50016 11.5928 4.50016 11.3954V9.90464Z" fill="black"/>
</svg>