<svg xmlns="http://www.w3.org/2000/svg" width="17" height="16" viewBox="0 0 17 16" fill="none">
<path opacity="0.4" d="M6.5 10C6.5 8.1144 6.5 7.1716 7.08579 6.58579C7.6716 6 8.6144 6 10.5 6H11.1667C13.0523 6 13.9951 6 14.5809 6.58579C15.1667 7.1716 15.1667 8.1144 15.1667 10V10.6667C15.1667 12.5523 15.1667 13.4951 14.5809 14.0809C13.9951 14.6667 13.0523 14.6667 11.1667 14.6667H10.5C8.6144 14.6667 7.6716 14.6667 7.08579 14.0809C6.5 13.4951 6.5 12.5523 6.5 10.6667V10Z" fill="#C3FF19"/>
<path d="M6.5 10C6.5 8.1144 6.5 7.1716 7.08579 6.58579C7.6716 6 8.6144 6 10.5 6H11.1667C13.0523 6 13.9951 6 14.5809 6.58579C15.1667 7.1716 15.1667 8.1144 15.1667 10V10.6667C15.1667 12.5523 15.1667 13.4951 14.5809 14.0809C13.9951 14.6667 13.0523 14.6667 11.1667 14.6667H10.5C8.6144 14.6667 7.6716 14.6667 7.08579 14.0809C6.5 13.4951 6.5 12.5523 6.5 10.6667V10Z" stroke="#C3FF19" stroke-width="1.5" stroke-linecap="round" stroke-linejoin="round"/>
<path d="M11.8334 6C11.8318 4.0286 11.802 3.00747 11.2282 2.30828C11.1174 2.17325 10.9936 2.04945 10.8586 1.93863C10.121 1.33333 9.02516 1.33333 6.8335 1.33333C4.64184 1.33333 3.54602 1.33333 2.80845 1.93863C2.67342 2.04944 2.54962 2.17325 2.4388 2.30828C1.8335 3.04585 1.8335 4.14167 1.8335 6.33333C1.8335 8.525 1.8335 9.62079 2.4388 10.3584C2.54961 10.4934 2.67342 10.6172 2.80845 10.728C3.50764 11.3019 4.52877 11.3317 6.50016 11.3333" stroke="#C3FF19" stroke-width="1.5" stroke-linecap="round" stroke-linejoin="round"/>
</svg>