<svg xmlns="http://www.w3.org/2000/svg" width="16" height="16" viewBox="0 0 16 16" fill="none">
<path fill-rule="evenodd" clip-rule="evenodd" d="M5.72073 1.23755C5.82578 0.992429 6.06681 0.833496 6.3335 0.833496H9.66683C9.9335 0.833496 10.1746 0.992429 10.2796 1.23755L11.1064 3.16683H14.6668V4.50016H1.3335V3.16683H4.8939L5.72073 1.23755ZM6.34452 3.16683H9.65583L9.22723 2.16683H6.7731L6.34452 3.16683Z" fill="#FD4343"/>
<path fill-rule="evenodd" clip-rule="evenodd" d="M12.833 14.6968L13.4996 3.69678H2.50146L3.16813 14.6968C3.18413 14.9607 3.40282 15.1665 3.66722 15.1665H12.3339C12.5983 15.1665 12.817 14.9607 12.833 14.6968ZM7.00083 11.3332V7.33317H5.66748V11.3332H7.00083ZM10.3342 11.3332V7.33317H9.00083V11.3332H10.3342Z" fill="#FD4343"/>
</svg>