<svg xmlns="http://www.w3.org/2000/svg" width="22" height="22" viewBox="0 0 22 22" fill="none">
<path fill-rule="evenodd" clip-rule="evenodd" d="M11.0572 0.749756C13.2479 0.749746 14.9686 0.749736 16.312 0.930346C17.6886 1.11544 18.7809 1.50248 19.6391 2.36067C20.4973 3.21887 20.8843 4.31113 21.0694 5.68778C21.25 7.03119 21.25 8.75186 21.25 10.9426V11.057C21.25 13.2477 21.25 14.9684 21.0694 16.3118C20.8843 17.6884 20.4973 18.7807 19.6391 19.6389C18.7809 20.4971 17.6886 20.8841 16.312 21.0692C14.9686 21.2498 13.2479 21.2498 11.0572 21.2498H10.9428C8.7521 21.2498 7.03143 21.2498 5.68802 21.0692C4.31137 20.8841 3.21911 20.4971 2.36091 19.6389C1.50272 18.7807 1.11568 17.6884 0.93059 16.3118C0.74998 14.9684 0.74999 13.2477 0.75 11.057V10.9426C0.74999 8.75188 0.74998 7.0312 0.93059 5.68778C1.11568 4.31113 1.50272 3.21887 2.36091 2.36067C3.21911 1.50248 4.31137 1.11544 5.68802 0.930346C7.03144 0.749736 8.75212 0.749746 10.9428 0.749756H11.0572ZM10 15.4998C10 14.9475 10.4457 14.4998 10.9955 14.4998H11.0045C11.5543 14.4998 12 14.9475 12 15.4998C12 16.0521 11.5543 16.4998 11.0045 16.4998H10.9955C10.4457 16.4998 10 16.0521 10 15.4998ZM10.0001 11.4998C10.0001 12.0521 10.4478 12.4998 11.0001 12.4998C11.5524 12.4998 12.0001 12.0521 12.0001 11.4998V7.49976C12.0001 6.94748 11.5524 6.49976 11.0001 6.49976C10.4478 6.49976 10.0001 6.94748 10.0001 7.49976V11.4998Z" fill="#C3FF19"/>
</svg>