<svg xmlns="http://www.w3.org/2000/svg" width="24" height="24" viewBox="0 0 24 24" fill="none">
<path fill-rule="evenodd" clip-rule="evenodd" d="M16.8344 2.52812L16.7934 2.50301C16.4146 2.27139 16.0413 2.04308 15.6307 1.90436C15.172 1.7494 14.7055 1.715 14.1276 1.78375C12.8794 1.93223 12.2227 2.5896 11.3238 3.48945C11.2992 3.51521 11.2742 3.54125 11.2491 3.56752C10.6739 4.16864 9.98069 4.89304 9.64375 5.3237C9.27696 5.79251 9.00943 6.25315 8.88349 6.80153C8.85743 6.915 8.83667 7.02964 8.82127 7.14505C8.74688 7.70276 8.83586 8.22797 9.01492 8.79564C9.15388 9.23617 9.35949 9.73809 9.61069 10.3284L1.96967 17.9697C1.82902 18.1103 1.75 18.3011 1.75 18.5V21.5C1.75 21.9142 2.08579 22.25 2.5 22.25H5.5C5.91422 22.25 6.25 21.9142 6.25 21.5V19.7493H8.00064C8.41485 19.7493 8.75064 19.4136 8.75064 18.9993V17.2493H10.5006C10.6996 17.2493 10.8904 17.1703 11.031 17.0296L13.6712 14.3891C14.2615 14.6403 14.7634 14.8459 15.2039 14.9848C15.7715 15.1639 16.2967 15.2528 16.8544 15.1785C16.9699 15.1631 17.0846 15.1423 17.1982 15.1162C17.7465 14.9902 18.2072 14.7227 18.6759 14.3559C19.1066 14.0189 19.8312 13.3255 20.4323 12.7503C20.4585 12.7252 20.4844 12.7004 20.5101 12.6758C21.41 11.7768 22.0674 11.1201 22.2158 9.87201C22.2846 9.29409 22.2502 8.82756 22.0952 8.36889C21.9565 7.9583 21.7282 7.58497 21.4966 7.20622L21.4715 7.16514C20.993 6.38223 20.3303 5.49869 19.4156 4.58398C18.5009 3.66927 17.6174 3.00659 16.8344 2.52812ZM17.5303 7.53033C17.8232 7.23744 17.8232 6.76256 17.5303 6.46967C17.2374 6.17678 16.7626 6.17678 16.4697 6.46967L15.4697 7.46967C15.1768 7.76256 15.1768 8.23744 15.4697 8.53033C15.7626 8.82322 16.2375 8.82322 16.5303 8.53033L17.5303 7.53033Z" fill="#C3FF19"/>
</svg>