<svg xmlns="http://www.w3.org/2000/svg" width="20" height="20" viewBox="0 0 20 20" fill="none">
<path d="M2.49992 7.78902C2.49992 6.43861 2.95161 5.17778 3.73864 4.11971L2.40134 3.125C1.41549 4.45039 0.833252 6.05583 0.833252 7.78902C0.833252 9.52217 1.41549 11.1277 2.40134 12.453L3.73864 11.4583C2.95161 10.4003 2.49992 9.13942 2.49992 7.78902Z" fill="#C3FF19"/>
<path d="M16.2615 4.11971C17.0486 5.17778 17.5002 6.43861 17.5002 7.78902C17.5002 9.13942 17.0486 10.4003 16.2615 11.4583L17.5988 12.453C18.5846 11.1277 19.1669 9.52217 19.1669 7.78902C19.1669 6.05583 18.5846 4.45039 17.5988 3.125L16.2615 4.11971Z" fill="#C3FF19"/>
<path d="M14.1667 7.78883C14.1667 7.06953 13.9192 6.38656 13.4685 5.79251L14.7963 4.78516C15.4452 5.64045 15.8333 6.67146 15.8333 7.78883C15.8333 8.90616 15.4452 9.93725 14.7963 10.7925L13.4685 9.78516C13.9192 9.19108 14.1667 8.50816 14.1667 7.78883Z" fill="#C3FF19"/>
<path d="M6.53162 5.79251C6.08093 6.38656 5.83341 7.06953 5.83341 7.78883C5.83341 8.50816 6.08093 9.19108 6.53162 9.78516L5.20383 10.7925C4.55495 9.93725 4.16675 8.90616 4.16675 7.78883C4.16675 6.67146 4.55495 5.64045 5.20383 4.78516L6.53162 5.79251Z" fill="#C3FF19"/>
<path d="M10 5.28955C8.61925 5.28955 7.5 6.40884 7.5 7.78955C7.5 8.87807 8.19568 9.80407 9.16667 10.1473V16.8757H10.8333V10.1473C11.8043 9.80407 12.5 8.87807 12.5 7.78955C12.5 6.40884 11.3807 5.28955 10 5.28955Z" fill="#C3FF19"/>
</svg>