<svg xmlns="http://www.w3.org/2000/svg" width="20" height="20" viewBox="0 0 20 20" fill="none">
<path fill-rule="evenodd" clip-rule="evenodd" d="M10.0001 1.0415C9.37775 1.0415 8.79042 1.2567 7.91306 1.57817L7.81018 1.61585L5.35354 2.51505L5.22012 2.56385C4.15308 2.95393 3.4386 3.21511 2.92102 3.7066C2.60215 4.0094 2.34557 4.37043 2.1662 4.77013C1.87419 5.42079 1.87453 6.17255 1.87504 7.28159L1.87508 7.42364V8.06705V8.17289C1.87499 10.0753 1.87494 11.154 2.14397 12.1511C2.47602 13.3818 3.1052 14.5153 3.97742 15.4573C4.68366 16.22 5.60613 16.8078 7.24051 17.8491L7.32894 17.9054L7.41287 17.9589C8.10109 18.3978 8.55992 18.6903 9.05983 18.8297C9.6745 19.001 10.3257 19.001 10.9403 18.8297C11.4402 18.6903 11.8991 18.3978 12.5873 17.9589L12.6712 17.9054L12.7596 17.8491C14.394 16.8078 15.3165 16.22 16.0227 15.4573C16.895 14.5153 17.5242 13.3818 17.8562 12.1511C18.1252 11.154 18.1252 10.0753 18.1251 8.1729V7.42364L18.1252 7.28159C18.1257 6.17255 18.126 5.42078 17.834 4.77013C17.6546 4.37043 17.398 4.0094 17.0792 3.7066C16.5616 3.21511 15.8471 2.95393 14.7801 2.56385L14.6466 2.51505L12.19 1.61585L12.0871 1.57817C11.2098 1.2567 10.6225 1.0415 10.0001 1.0415ZM9.9955 5.83317C8.55442 5.83317 7.22923 6.36605 6.1408 7.25153C5.78378 7.54198 5.72982 8.06685 6.02026 8.42384C6.3107 8.78092 6.83558 8.83484 7.19259 8.54442C8.01888 7.87219 8.98042 7.49984 9.9955 7.49984C11.0138 7.49984 11.9782 7.87453 12.8062 8.55075C13.1627 8.84192 13.6877 8.78892 13.9788 8.4325C14.2699 8.076 14.2169 7.55103 13.8605 7.25991C12.7701 6.36944 11.4412 5.83317 9.9955 5.83317ZM9.9955 8.63375C9.17892 8.63375 8.41425 8.8735 7.7482 9.2865C7.35705 9.529 7.23657 10.0427 7.47909 10.4338C7.72162 10.825 8.23532 10.9455 8.6265 10.7029C9.04975 10.4405 9.51308 10.3004 9.9955 10.3004C10.4803 10.3004 10.9459 10.4418 11.371 10.7069C11.7615 10.9505 12.2755 10.8313 12.519 10.4408C12.7626 10.0503 12.6434 9.53625 12.2528 9.29275C11.5844 8.87592 10.8162 8.63375 9.9955 8.63375ZM9.16667 12.4998C9.16667 12.0396 9.53975 11.6665 10 11.6665H10.0053C10.4656 11.6665 10.8387 12.0396 10.8387 12.4998C10.8387 12.9601 10.4656 13.3332 10.0053 13.3332H10C9.53975 13.3332 9.16667 12.9601 9.16667 12.4998Z" fill="#C3FF19"/>
</svg>