<svg xmlns="http://www.w3.org/2000/svg" width="25" height="24" viewBox="0 0 25 24" fill="none">
<path fill-rule="evenodd" clip-rule="evenodd" d="M13.1729 4.5C13.1729 3.94772 12.7251 3.5 12.1729 3.5C11.6206 3.5 11.1729 3.94772 11.1729 4.5V11H10.5786C10.403 10.9999 10.1873 10.9997 10.0109 11.0218L10.0075 11.0222C9.88107 11.038 9.30503 11.1098 9.03067 11.6754C8.75571 12.2423 9.05764 12.7424 9.12296 12.8506L9.1254 12.8546C9.21761 13.0076 9.35176 13.1785 9.4621 13.3191L9.48584 13.3493C9.78047 13.7252 10.1624 14.2094 10.5429 14.6004C10.7327 14.7955 10.95 14.9967 11.1809 15.1556C11.3861 15.2968 11.7363 15.5 12.167 15.5C12.5977 15.5 12.9479 15.2968 13.1531 15.1556C13.384 14.9967 13.6013 14.7955 13.7911 14.6004C14.1716 14.2094 14.5535 13.7252 14.8482 13.3493L14.8719 13.3191C14.9822 13.1785 15.1164 13.0077 15.2086 12.8546L15.211 12.8506C15.2763 12.7424 15.5783 12.2422 15.3033 11.6754C15.029 11.1098 14.4529 11.038 14.3265 11.0222L14.3231 11.0218C14.1467 10.9997 13.931 10.9999 13.7554 11H13.1729V4.5Z" fill="#C3FF19"/>
<path fill-rule="evenodd" clip-rule="evenodd" d="M4.16699 15.5C4.71927 15.5 5.16699 15.9477 5.16699 16.5C5.16699 17.0989 5.19955 17.5106 5.26342 17.8013C5.3248 18.0807 5.40071 18.181 5.44335 18.2236C5.48598 18.2663 5.58632 18.3422 5.86571 18.4036C6.15643 18.4674 6.56813 18.5 7.16699 18.5H17.167C17.7659 18.5 18.1776 18.4674 18.4683 18.4036C18.7477 18.3422 18.848 18.2663 18.8906 18.2236C18.9333 18.181 19.0092 18.0807 19.0706 17.8013C19.1344 17.5106 19.167 17.0989 19.167 16.5C19.167 15.9477 19.6147 15.5 20.167 15.5C20.7193 15.5 21.167 15.9477 21.167 16.5C21.167 17.1421 21.1348 17.7259 21.024 18.2304C20.9107 18.7462 20.702 19.2407 20.3049 19.6379C19.9077 20.035 19.4132 20.2437 18.8974 20.357C18.3929 20.4678 17.8091 20.5 17.167 20.5H7.16699C6.52485 20.5 5.94105 20.4678 5.43658 20.357C4.92079 20.2437 4.42625 20.035 4.02913 19.6379C3.63202 19.2407 3.42331 18.7462 3.31 18.2304C3.19918 17.7259 3.16699 17.1421 3.16699 16.5C3.16699 15.9477 3.61471 15.5 4.16699 15.5Z" fill="#C3FF19"/>
</svg>