<svg xmlns="http://www.w3.org/2000/svg" width="16" height="16" viewBox="0 0 16 16" fill="none">
<path d="M7.99984 1.99984C4.68613 1.99984 1.99984 4.68613 1.99984 7.99984C1.99984 11.3136 4.68613 13.9998 7.99984 13.9998C11.3136 13.9998 13.9998 11.3136 13.9998 7.99984C13.9998 7.63164 14.2983 7.33317 14.6665 7.33317C15.0347 7.33317 15.3332 7.63164 15.3332 7.99984C15.3332 12.0499 12.0499 15.3332 7.99984 15.3332C3.94975 15.3332 0.666504 12.0499 0.666504 7.99984C0.666504 3.94975 3.94975 0.666504 7.99984 0.666504C9.44544 0.666504 10.7936 1.08516 11.9293 1.8072L12.8146 0.921957C12.9366 0.766424 13.1263 0.666504 13.3393 0.666504C13.7075 0.666504 14.006 0.964984 14.006 1.33317V3.4213C14.006 4.23561 12.9942 4.60703 12.4667 3.99388C11.3673 2.76888 9.77384 1.99984 7.99984 1.99984Z" fill="white"/>
</svg>