<svg xmlns="http://www.w3.org/2000/svg" width="20" height="20" viewBox="0 0 20 20" fill="none">
<path fill-rule="evenodd" clip-rule="evenodd" d="M8.33333 2.70817C6.7225 2.70817 5.41667 4.014 5.41667 5.62484V7.70817H3.75V5.62484C3.75 3.09353 5.80203 1.0415 8.33333 1.0415C10.8647 1.0415 12.9167 3.09353 12.9167 5.62484V7.70817H11.25V5.62484C11.25 4.014 9.94417 2.70817 8.33333 2.70817Z" fill="#C3FF19"/>
<path fill-rule="evenodd" clip-rule="evenodd" d="M15.9674 10.9239C16.2747 10.6165 16.773 10.6165 17.0804 10.9239L18.9583 12.8018L17.8454 13.9147L16.5239 12.5933L15.764 13.3531L16.4493 14.026L15.3465 15.149L14.6459 14.4612L13.7991 15.2927C14.285 16.242 14.125 17.4313 13.3191 18.2226C12.3215 19.2021 10.71 19.2021 9.71244 18.2226C8.70686 17.2353 8.70686 15.6284 9.71244 14.641C10.5176 13.8504 11.7228 13.6979 12.6822 14.1836L14.092 12.7993L15.9674 10.9239ZM12.2164 15.7641C11.831 15.3858 11.2004 15.3858 10.8152 15.7641C10.4379 16.1345 10.4379 16.7291 10.8152 17.0996C11.2004 17.4779 11.831 17.4779 12.2164 17.0996C12.5936 16.7291 12.5936 16.1345 12.2164 15.7641Z" fill="#C3FF19"/>
<path d="M15.6251 6.875H1.04175V18.9583H8.68567C7.33409 17.4719 7.38447 15.1759 8.83683 13.7499C9.79742 12.8067 11.1342 12.4763 12.3584 12.7507L13.2123 11.9121L15.0837 10.0407C15.2463 9.87817 15.4296 9.74875 15.6251 9.65267V6.875Z" fill="#C3FF19"/>
</svg>