<svg xmlns="http://www.w3.org/2000/svg" width="25" height="24" viewBox="0 0 25 24" fill="none">
<path d="M22.4306 2.54257C21.9632 2.03918 21.2303 1.85063 20.5301 1.78314C19.7944 1.71223 18.9133 1.75939 17.9646 1.88382C16.0621 2.13337 13.7635 2.71102 11.5555 3.42176C9.34607 4.13295 7.1924 4.98865 5.57952 5.80847C4.77681 6.21648 4.0806 6.62932 3.57447 7.02586C3.32245 7.22331 3.09248 7.436 2.91949 7.66237C2.75449 7.87829 2.5809 8.18549 2.58328 8.55582C2.58955 9.5279 3.25155 10.2149 3.95653 10.676C4.6761 11.1467 5.61324 11.5014 6.54487 11.7792C7.4865 12.06 8.47672 12.2776 9.32799 12.454C9.38378 12.4655 9.49529 12.4886 9.63193 12.5168C10.1465 12.6231 10.4038 12.6763 10.6456 12.6039C10.8875 12.5315 11.0735 12.3456 11.4453 11.9737L15.1262 8.29289C15.5167 7.90237 16.1499 7.90237 16.5404 8.29289C16.9309 8.68342 16.9309 9.31659 16.5404 9.70711L13.1078 13.1397C12.7287 13.5188 12.5392 13.7083 12.4675 13.9543C12.3957 14.2003 12.4536 14.4614 12.5693 14.9837C13.0177 17.0084 13.4071 18.6815 13.7956 19.8071C14.0225 20.4645 14.2778 21.0336 14.6011 21.4533C14.9385 21.8913 15.3975 22.2222 16.0016 22.2489C16.3777 22.2655 16.6904 22.0938 16.9048 21.9344C17.1308 21.7666 17.3433 21.5414 17.5404 21.2953C17.9364 20.8005 18.3525 20.1159 18.7665 19.3247C19.5985 17.7347 20.4795 15.6028 21.225 13.4096C21.9701 11.2173 22.591 8.9306 22.8901 7.0301C23.0393 6.0823 23.1131 5.20207 23.0721 4.46477C23.0332 3.76556 22.8842 3.03106 22.4306 2.54257Z" fill="#C3FF19"/>
</svg>