<svg xmlns="http://www.w3.org/2000/svg" width="111" height="110" viewBox="0 0 111 110" fill="none">
<path d="M30.9113 69.9181L24.3163 75.2337C23.0866 76.1509 21.4809 75.4972 21.1049 73.9263L18.9034 58.6751" fill="#1C1C23"/>
<path d="M30.9113 69.9181L24.3163 75.2337C23.0866 76.1509 21.4809 75.4972 21.1049 73.9263L18.9034 58.6751" stroke="#C3FF19" stroke-miterlimit="10" stroke-linejoin="round"/>
<path d="M93.9394 31.371L89.7021 35.2919L45.3549 76.6334C43.3342 78.5704 40.2089 78.4881 38.1254 76.7031L22.1932 62.0397L18.9974 59.0677L10.1854 50.7966C8.29764 48.9648 9.15913 45.6445 11.7517 45.2315L84.6421 33.1813L93.9394 31.371Z" fill="#1C1C23" stroke="#C3FF19" stroke-miterlimit="10" stroke-linejoin="round"/>
<path d="M93.9396 31.3712L89.7023 35.292L22.3422 61.7966L18.9506 58.8715L84.7911 32.9383L93.9396 31.3712Z" fill="#1C1C23" stroke="#C3FF19" stroke-miterlimit="10" stroke-linejoin="round"/>
</svg>