<svg xmlns="http://www.w3.org/2000/svg" width="25" height="24" viewBox="0 0 25 24" fill="none">
<path d="M7.25056 16.9459C6.72882 16.9988 6.06462 17 5.08082 17H3.5C2.94772 17 2.5 17.4477 2.5 18C2.5 18.5523 2.94772 19 3.5 19H5.08082H5.13006C6.05214 19 6.81793 19 7.45226 18.9357C8.12184 18.8679 8.71843 18.7231 9.28908 18.391C10.266 17.8226 10.8916 16.8489 11.709 15.5255C11.9992 15.0556 11.8535 14.4394 11.3836 14.1492C10.9137 13.859 10.2976 14.0046 10.0073 14.4745C9.12651 15.9007 8.74811 16.3919 8.28331 16.6623C8.04046 16.8036 7.74832 16.8955 7.25056 16.9459Z" fill="#C3FF19"/>
<path d="M14.0137 9.85081C14.4836 10.141 15.0998 9.99536 15.39 9.52547C16.2708 8.09928 16.6492 7.60808 17.114 7.33765C17.4976 7.11449 17.9843 7.01116 18.5982 6.98106C19.0018 6.96128 19.3602 6.97226 19.7463 6.98408C20.0002 6.99186 20.2662 7 20.5649 7L20.6145 7.00002C20.8522 7.00021 21.1347 7.00042 21.3636 6.96524C21.5963 6.92947 22.1823 6.79616 22.4205 6.17086C22.6442 5.5838 22.3456 5.10207 22.2198 4.92028C22.0876 4.72932 21.8948 4.51987 21.7239 4.33435L21.6911 4.29873L20.7936 3.323C20.4197 2.91652 19.7871 2.89012 19.3806 3.26402C19.1663 3.46113 19.0577 3.73013 19.0576 4V4.41413C19.0576 4.65269 19.0576 4.77197 18.996 4.85261C18.9824 4.87044 18.9683 4.88521 18.9512 4.89968C18.8736 4.96516 18.7492 4.97126 18.5003 4.98346C17.7462 5.02042 16.8907 5.15374 16.1083 5.60895C15.1313 6.17736 14.5058 7.15106 13.6884 8.47453C13.3982 8.94442 13.5438 9.5606 14.0137 9.85081Z" fill="#C3FF19"/>
<path d="M7.25056 7.05407C6.72882 7.00118 6.06462 7 5.08082 7H3.5C2.94772 7 2.5 6.55229 2.5 6C2.5 5.44772 2.94772 5 3.5 5H5.08082H5.13006C6.05214 4.99998 6.81793 4.99996 7.45226 5.06426C8.12184 5.13213 8.71843 5.27694 9.28908 5.60895C9.85568 5.9386 10.2877 6.3895 10.7008 6.94378C11.0971 7.4754 11.518 8.16179 12.0324 9.00064L15.046 13.9148C15.5901 14.8021 15.9644 15.4106 16.3001 15.861C16.625 16.297 16.8671 16.5187 17.114 16.6623C17.4976 16.8855 17.9843 16.9888 18.5982 17.0189C19.0018 17.0387 19.3602 17.0277 19.7463 17.0159C20.0002 17.0081 20.2662 17 20.5649 17H20.6145C20.8522 16.9998 21.1347 16.9996 21.3636 17.0348C21.5963 17.0705 22.1823 17.2038 22.4205 17.8291C22.6442 18.4162 22.3456 18.8979 22.2198 19.0797C22.0876 19.2707 21.8948 19.4801 21.7239 19.6656L21.6911 19.7013L20.7936 20.677C20.4197 21.0835 19.7871 21.1099 19.3806 20.736C19.1663 20.5389 19.0577 20.2699 19.0576 20V19.5859C19.0576 19.3473 19.0576 19.228 18.996 19.1474C18.9824 19.1296 18.9683 19.1148 18.9512 19.1003C18.8736 19.0348 18.7492 19.0287 18.5003 19.0165C17.7462 18.9796 16.8907 18.8463 16.1083 18.3911C15.5417 18.0614 15.1096 17.6105 14.6965 17.0562C14.3003 16.5246 13.8793 15.8382 13.3649 14.9993L10.3513 10.0852C9.80724 9.1979 9.43298 8.58942 9.09725 8.139C8.7723 7.70302 8.53022 7.48131 8.28331 7.33766C8.04046 7.19637 7.74832 7.10452 7.25056 7.05407Z" fill="#C3FF19"/>
</svg>