<svg xmlns="http://www.w3.org/2000/svg" width="16" height="16" viewBox="0 0 16 16" fill="none">
<path fill-rule="evenodd" clip-rule="evenodd" d="M5.19278 2.25705C5.25202 2.34736 5.18515 2.50132 5.0514 2.80923C4.99992 2.92775 4.95322 3.04882 4.91153 3.17221C4.86208 3.31855 4.83735 3.39172 4.78508 3.42923C4.73281 3.46674 4.66024 3.46674 4.51511 3.46674H2.78774C2.42792 3.46674 2.13623 3.75775 2.13623 4.11674C2.13623 4.47572 2.42792 4.76673 2.78774 4.76673H10.6519C11.2064 4.75829 12.4198 4.76191 12.8377 4.84393C13.4422 4.92501 13.9761 5.10179 14.4036 5.52826C14.831 5.95473 15.0082 6.48735 15.0894 7.09046C15.1669 7.66486 15.1668 8.39066 15.1668 9.27086V10.6626C15.1668 11.5427 15.1669 12.2685 15.0894 12.843C15.0082 13.4461 14.831 13.9787 14.4036 14.4052C13.9761 14.8317 13.4422 15.0084 12.8377 15.0895C12.2619 15.1667 11.5344 15.1667 10.6522 15.1667H6.64948C5.46147 15.1667 4.50389 15.1667 3.75076 15.0657C2.96885 14.9608 2.3105 14.7365 1.78762 14.2148C1.26474 13.6931 1.03984 13.0363 0.934717 12.2562C0.833463 11.5049 0.833477 10.5495 0.833497 9.36426V4.11675C0.833497 3.03979 1.70858 2.16675 2.78804 2.16675L4.66432 2.16675C4.97714 2.16675 5.13355 2.16674 5.19278 2.25705ZM11.6668 8.66659C12.4032 8.66659 13.0002 9.26353 13.0002 9.99993C13.0002 10.7363 12.4032 11.3333 11.6668 11.3333C10.9304 11.3333 10.3335 10.7363 10.3335 9.99993C10.3335 9.26353 10.9304 8.66659 11.6668 8.66659Z" fill="#C3FF19"/>
<path d="M12.9705 4.02093C13.042 4.03079 13.1037 3.96895 13.0893 3.8982C12.7334 2.14934 11.1869 0.833252 9.33293 0.833252C7.55093 0.833252 6.05288 2.04925 5.62335 3.69675C5.59164 3.8184 5.68641 3.93329 5.81213 3.93329H10.6453C10.9312 3.92902 11.3808 3.92787 11.8155 3.9382C12.2131 3.94766 12.6773 3.96768 12.9705 4.02093Z" fill="#C3FF19"/>
</svg>